M48
;GenerationSoftware,Autodesk,EAGLE,9.6.2*%
;CreationDate,2022-04-10T21:29:29Z*%
FMAT,2
ICI,OFF
INCH,TZ,00.0000
T4C0.0200
T3C0.0320
T2C0.0390
T1C0.0400
%
G90
M72
T1
X10417Y17705
X7417Y17705
X8417Y17705
X9417Y17705
X17665Y9937
X17665Y10937
X17665Y11937
X17665Y12937
X17665Y13937
X17665Y14937
X17665Y15937
X17665Y16937
X17665Y17937
X17665Y18937
T2
X20031Y7764
X17547Y3512
X20106Y3512
X17547Y1740
X20106Y1740
X17472Y7764
X17472Y5992
X20031Y5992
T3
X15854Y12008
X14854Y12008
X15854Y9449
X14854Y9449
X15854Y6890
X14854Y6890
T4
X8288Y12205
X3740Y16142
X9843Y8071
X591Y16142
X6102Y7677
X3937Y12598
X6693Y7677
X12008Y1772
X7283Y7677
X7874Y7677
X7087Y2559
X2135Y3150
X8268Y16535
X12008Y591
X12008Y1181
X984Y18701
X20079Y9449
X14370Y3937
X4921Y5118
X2165Y12402
X4134Y14370
X11024Y16535
X11001Y15726
X5118Y8661
X4921Y3966
X2953Y3149
X5906Y13583
X5315Y13583
X4528Y15945
X6693Y13780
X5906Y14370
X8465Y14370
X8465Y7283
X9055Y9252
X9055Y11220
X7874Y13780
X9449Y7677
X10804Y14983
M30