G04 EAGLE Gerber RS-274X export*
G75*
%MOIN*%
%FSLAX36Y36*%
%LPD*%
%INBottom Copper Layer*%
%IPPOS*%
%AMOC8*
5,1,8,0,0,1.08239X$1,22.5*%
G01*
%ADD10C,0.064000*%
%ADD11C,0.062976*%
%ADD12C,0.056000*%
%ADD13C,0.040000*%
%ADD14C,0.010000*%

G36*
X2083102Y10059D02*
X2083102Y10059D01*
X2083569Y10088D01*
X2083721Y10137D01*
X2083880Y10157D01*
X2084315Y10329D01*
X2084761Y10474D01*
X2084896Y10559D01*
X2085045Y10618D01*
X2085423Y10892D01*
X2085819Y11143D01*
X2085929Y11260D01*
X2086058Y11354D01*
X2086357Y11714D01*
X2086678Y12055D01*
X2086755Y12195D01*
X2086857Y12318D01*
X2087056Y12742D01*
X2087283Y13151D01*
X2087323Y13306D01*
X2087391Y13451D01*
X2087479Y13910D01*
X2087596Y14364D01*
X2087612Y14602D01*
X2087627Y14681D01*
X2087622Y14762D01*
X2087637Y15000D01*
X2087637Y1972008D01*
X2087578Y1972472D01*
X2087550Y1972939D01*
X2087500Y1973092D01*
X2087480Y1973250D01*
X2087308Y1973685D01*
X2087164Y1974131D01*
X2087078Y1974266D01*
X2087019Y1974415D01*
X2086745Y1974793D01*
X2086494Y1975189D01*
X2086378Y1975299D01*
X2086284Y1975428D01*
X2085924Y1975727D01*
X2085583Y1976048D01*
X2085443Y1976125D01*
X2085319Y1976227D01*
X2084896Y1976427D01*
X2084486Y1976653D01*
X2084331Y1976693D01*
X2084187Y1976761D01*
X2083728Y1976849D01*
X2083274Y1976967D01*
X2083036Y1976982D01*
X2082957Y1976997D01*
X2082876Y1976992D01*
X2082638Y1977007D01*
X15000Y1977007D01*
X14536Y1976949D01*
X14069Y1976920D01*
X13916Y1976870D01*
X13757Y1976850D01*
X13323Y1976678D01*
X12877Y1976534D01*
X12742Y1976448D01*
X12593Y1976390D01*
X12215Y1976115D01*
X11819Y1975865D01*
X11709Y1975748D01*
X11579Y1975654D01*
X11281Y1975294D01*
X10960Y1974953D01*
X10883Y1974813D01*
X10781Y1974689D01*
X10581Y1974266D01*
X10355Y1973856D01*
X10315Y1973701D01*
X10247Y1973557D01*
X10159Y1973098D01*
X10041Y1972644D01*
X10026Y1972406D01*
X10011Y1972327D01*
X10016Y1972246D01*
X10001Y1972008D01*
X10001Y15000D01*
X10059Y14536D01*
X10088Y14069D01*
X10137Y13916D01*
X10157Y13757D01*
X10329Y13323D01*
X10474Y12877D01*
X10559Y12742D01*
X10618Y12593D01*
X10892Y12215D01*
X11143Y11819D01*
X11260Y11709D01*
X11354Y11579D01*
X11714Y11281D01*
X12055Y10960D01*
X12195Y10883D01*
X12318Y10781D01*
X12742Y10581D01*
X13151Y10355D01*
X13306Y10315D01*
X13451Y10247D01*
X13910Y10159D01*
X14364Y10041D01*
X14602Y10026D01*
X14681Y10011D01*
X14762Y10016D01*
X15000Y10001D01*
X2082638Y10001D01*
X2083102Y10059D01*
G37*
%LPC*%
G36*
X1038750Y28369D02*
X1038750Y28369D01*
X599235Y467884D01*
X599235Y740790D01*
X599221Y740904D01*
X599230Y741019D01*
X599143Y741524D01*
X599079Y742032D01*
X599036Y742139D01*
X599017Y742253D01*
X598806Y742722D01*
X598618Y743197D01*
X598550Y743290D01*
X598503Y743395D01*
X598183Y743796D01*
X597882Y744210D01*
X597793Y744284D01*
X597721Y744374D01*
X597313Y744682D01*
X596918Y745009D01*
X596813Y745058D01*
X596721Y745128D01*
X596149Y745409D01*
X595508Y745674D01*
X588194Y752988D01*
X584235Y762545D01*
X584235Y772888D01*
X588194Y782445D01*
X595508Y789759D01*
X605064Y793717D01*
X615408Y793717D01*
X624964Y789759D01*
X632278Y782445D01*
X635145Y775524D01*
X635416Y775049D01*
X635672Y774565D01*
X635725Y774506D01*
X635765Y774436D01*
X636147Y774042D01*
X636514Y773638D01*
X636581Y773594D01*
X636637Y773537D01*
X637104Y773250D01*
X637560Y772950D01*
X637636Y772924D01*
X637704Y772882D01*
X638228Y772720D01*
X638744Y772543D01*
X638824Y772537D01*
X638901Y772513D01*
X639447Y772487D01*
X639993Y772443D01*
X640072Y772457D01*
X640152Y772453D01*
X640687Y772563D01*
X641227Y772657D01*
X641300Y772690D01*
X641378Y772706D01*
X641871Y772947D01*
X642369Y773171D01*
X642431Y773220D01*
X642504Y773256D01*
X642920Y773610D01*
X643348Y773952D01*
X643396Y774016D01*
X643457Y774068D01*
X643771Y774513D01*
X644101Y774952D01*
X644151Y775052D01*
X644178Y775092D01*
X644207Y775167D01*
X644382Y775524D01*
X647249Y782445D01*
X654563Y789759D01*
X664119Y793717D01*
X674463Y793717D01*
X684019Y789759D01*
X691334Y782445D01*
X694200Y775524D01*
X694471Y775049D01*
X694727Y774565D01*
X694781Y774506D01*
X694820Y774436D01*
X695202Y774042D01*
X695569Y773638D01*
X695636Y773594D01*
X695692Y773537D01*
X696159Y773250D01*
X696615Y772950D01*
X696691Y772924D01*
X696759Y772882D01*
X697283Y772720D01*
X697799Y772543D01*
X697879Y772537D01*
X697956Y772513D01*
X698503Y772487D01*
X699048Y772443D01*
X699127Y772457D01*
X699207Y772453D01*
X699742Y772563D01*
X700282Y772657D01*
X700355Y772690D01*
X700433Y772706D01*
X700926Y772947D01*
X701424Y773171D01*
X701486Y773220D01*
X701559Y773256D01*
X701975Y773610D01*
X702403Y773952D01*
X702451Y774016D01*
X702512Y774068D01*
X702826Y774513D01*
X703156Y774952D01*
X703206Y775052D01*
X703234Y775092D01*
X703262Y775167D01*
X703438Y775524D01*
X706304Y782445D01*
X713618Y789759D01*
X723175Y793717D01*
X733518Y793717D01*
X743074Y789759D01*
X750389Y782445D01*
X753255Y775524D01*
X753525Y775051D01*
X753782Y774565D01*
X753836Y774506D01*
X753876Y774436D01*
X754256Y774044D01*
X754624Y773638D01*
X754691Y773594D01*
X754747Y773537D01*
X755215Y773250D01*
X755670Y772950D01*
X755746Y772924D01*
X755815Y772882D01*
X756338Y772720D01*
X756855Y772543D01*
X756935Y772537D01*
X757011Y772513D01*
X757558Y772487D01*
X758103Y772443D01*
X758182Y772457D01*
X758262Y772453D01*
X758798Y772563D01*
X759337Y772657D01*
X759410Y772690D01*
X759489Y772706D01*
X759980Y772946D01*
X760479Y773171D01*
X760542Y773221D01*
X760614Y773256D01*
X761031Y773611D01*
X761458Y773952D01*
X761506Y774016D01*
X761567Y774068D01*
X761883Y774516D01*
X762212Y774952D01*
X762261Y775052D01*
X762289Y775092D01*
X762318Y775168D01*
X762493Y775524D01*
X765359Y782445D01*
X772673Y789759D01*
X782230Y793717D01*
X792573Y793717D01*
X802130Y789759D01*
X809444Y782445D01*
X813402Y772888D01*
X813402Y762545D01*
X809444Y752988D01*
X802130Y745674D01*
X801489Y745409D01*
X801388Y745352D01*
X801279Y745316D01*
X800845Y745042D01*
X800401Y744788D01*
X800318Y744708D01*
X800220Y744647D01*
X799869Y744273D01*
X799501Y743917D01*
X799441Y743819D01*
X799362Y743735D01*
X799114Y743287D01*
X798846Y742850D01*
X798812Y742739D01*
X798757Y742638D01*
X798628Y742142D01*
X798477Y741653D01*
X798472Y741538D01*
X798443Y741426D01*
X798402Y740790D01*
X798402Y636549D01*
X798451Y636163D01*
X798462Y635774D01*
X798529Y635544D01*
X798559Y635306D01*
X798702Y634945D01*
X798810Y634571D01*
X798932Y634365D01*
X799020Y634142D01*
X799248Y633827D01*
X799445Y633492D01*
X799708Y633194D01*
X799756Y633128D01*
X799793Y633097D01*
X799866Y633014D01*
X821203Y611677D01*
X821510Y611439D01*
X821793Y611173D01*
X822002Y611057D01*
X822192Y610910D01*
X822549Y610755D01*
X822889Y610568D01*
X823121Y610508D01*
X823341Y610412D01*
X823725Y610351D01*
X824101Y610254D01*
X824498Y610228D01*
X824578Y610216D01*
X824626Y610220D01*
X824738Y610213D01*
X1707883Y610213D01*
X1707997Y610228D01*
X1708112Y610219D01*
X1708616Y610306D01*
X1709125Y610370D01*
X1709232Y610412D01*
X1709346Y610432D01*
X1709813Y610642D01*
X1710290Y610831D01*
X1710383Y610899D01*
X1710488Y610946D01*
X1710888Y611265D01*
X1711303Y611567D01*
X1711377Y611655D01*
X1711467Y611727D01*
X1711775Y612136D01*
X1712102Y612531D01*
X1712151Y612635D01*
X1712220Y612727D01*
X1712501Y613299D01*
X1715462Y620448D01*
X1726008Y630994D01*
X1739787Y636701D01*
X1754701Y636701D01*
X1768480Y630994D01*
X1779026Y620448D01*
X1784733Y606670D01*
X1784733Y591756D01*
X1779026Y577977D01*
X1768480Y567431D01*
X1754701Y561724D01*
X1739787Y561724D01*
X1726008Y567431D01*
X1715462Y577977D01*
X1712501Y585126D01*
X1712444Y585226D01*
X1712409Y585335D01*
X1712135Y585768D01*
X1711881Y586214D01*
X1711801Y586296D01*
X1711739Y586394D01*
X1711367Y586745D01*
X1711010Y587113D01*
X1710911Y587174D01*
X1710828Y587252D01*
X1710380Y587499D01*
X1709942Y587768D01*
X1709832Y587802D01*
X1709731Y587858D01*
X1709234Y587986D01*
X1708745Y588137D01*
X1708631Y588142D01*
X1708519Y588171D01*
X1707883Y588212D01*
X813554Y588212D01*
X776401Y625365D01*
X776401Y740790D01*
X776386Y740904D01*
X776396Y741019D01*
X776308Y741524D01*
X776244Y742032D01*
X776202Y742139D01*
X776182Y742253D01*
X775971Y742722D01*
X775783Y743197D01*
X775716Y743290D01*
X775668Y743395D01*
X775348Y743796D01*
X775047Y744210D01*
X774959Y744284D01*
X774887Y744374D01*
X774478Y744682D01*
X774083Y745009D01*
X773979Y745058D01*
X773887Y745128D01*
X773314Y745409D01*
X772673Y745674D01*
X765359Y752988D01*
X762493Y759909D01*
X762222Y760384D01*
X761966Y760868D01*
X761912Y760927D01*
X761872Y760997D01*
X761491Y761391D01*
X761124Y761795D01*
X761057Y761839D01*
X761001Y761896D01*
X760533Y762183D01*
X760078Y762483D01*
X760002Y762509D01*
X759934Y762551D01*
X759410Y762712D01*
X758893Y762890D01*
X758813Y762896D01*
X758737Y762920D01*
X758190Y762946D01*
X757645Y762990D01*
X757566Y762976D01*
X757486Y762980D01*
X756950Y762869D01*
X756411Y762776D01*
X756338Y762743D01*
X756259Y762727D01*
X755767Y762486D01*
X755269Y762262D01*
X755206Y762213D01*
X755134Y762177D01*
X754718Y761823D01*
X754290Y761481D01*
X754242Y761417D01*
X754181Y761365D01*
X753867Y760920D01*
X753536Y760481D01*
X753487Y760381D01*
X753459Y760341D01*
X753430Y760266D01*
X753255Y759909D01*
X750389Y752988D01*
X743075Y745674D01*
X742433Y745409D01*
X742333Y745352D01*
X742224Y745316D01*
X741790Y745042D01*
X741345Y744788D01*
X741263Y744708D01*
X741165Y744647D01*
X740814Y744273D01*
X740446Y743917D01*
X740385Y743819D01*
X740307Y743735D01*
X740059Y743287D01*
X739791Y742850D01*
X739757Y742739D01*
X739701Y742638D01*
X739573Y742142D01*
X739422Y741653D01*
X739417Y741538D01*
X739388Y741426D01*
X739347Y740790D01*
X739347Y616864D01*
X739396Y616478D01*
X739407Y616089D01*
X739474Y615859D01*
X739504Y615621D01*
X739647Y615260D01*
X739755Y614886D01*
X739876Y614680D01*
X739965Y614457D01*
X740193Y614142D01*
X740390Y613807D01*
X740653Y613509D01*
X740700Y613443D01*
X740738Y613412D01*
X740811Y613328D01*
X790494Y563646D01*
X790801Y563407D01*
X791084Y563141D01*
X791294Y563025D01*
X791483Y562878D01*
X791840Y562724D01*
X792180Y562536D01*
X792413Y562476D01*
X792633Y562381D01*
X793016Y562320D01*
X793393Y562222D01*
X793789Y562197D01*
X793869Y562184D01*
X793918Y562189D01*
X794029Y562182D01*
X1638415Y562182D01*
X1676320Y524276D01*
X1676321Y524275D01*
X1684229Y516367D01*
X1684229Y190016D01*
X1684288Y189551D01*
X1684316Y189084D01*
X1684366Y188932D01*
X1684386Y188773D01*
X1684558Y188338D01*
X1684702Y187893D01*
X1684788Y187757D01*
X1684847Y187609D01*
X1685121Y187231D01*
X1685372Y186835D01*
X1685488Y186725D01*
X1685582Y186595D01*
X1685942Y186297D01*
X1686283Y185976D01*
X1686423Y185898D01*
X1686547Y185796D01*
X1686970Y185597D01*
X1687380Y185371D01*
X1687535Y185331D01*
X1687680Y185262D01*
X1688138Y185174D01*
X1688592Y185057D01*
X1688830Y185042D01*
X1688909Y185027D01*
X1688990Y185032D01*
X1689228Y185016D01*
X1715363Y185016D01*
X1715477Y185031D01*
X1715592Y185022D01*
X1716097Y185109D01*
X1716605Y185173D01*
X1716712Y185216D01*
X1716826Y185235D01*
X1717293Y185445D01*
X1717770Y185634D01*
X1717863Y185702D01*
X1717968Y185749D01*
X1718368Y186068D01*
X1718783Y186370D01*
X1718857Y186459D01*
X1718947Y186530D01*
X1719255Y186939D01*
X1719582Y187334D01*
X1719631Y187438D01*
X1719701Y187530D01*
X1719982Y188102D01*
X1722943Y195251D01*
X1733489Y205797D01*
X1747267Y211505D01*
X1762181Y211505D01*
X1775960Y205797D01*
X1786506Y195251D01*
X1792213Y181473D01*
X1792213Y166559D01*
X1786506Y152780D01*
X1775960Y142234D01*
X1762181Y136527D01*
X1747267Y136527D01*
X1733489Y142234D01*
X1722943Y152780D01*
X1719982Y159929D01*
X1719925Y160029D01*
X1719889Y160139D01*
X1719615Y160572D01*
X1719361Y161017D01*
X1719281Y161099D01*
X1719220Y161197D01*
X1718847Y161548D01*
X1718490Y161916D01*
X1718392Y161977D01*
X1718308Y162055D01*
X1717861Y162302D01*
X1717422Y162571D01*
X1717312Y162605D01*
X1717211Y162661D01*
X1716715Y162789D01*
X1716226Y162940D01*
X1716111Y162945D01*
X1715999Y162974D01*
X1715363Y163015D01*
X1671821Y163015D01*
X1662228Y172609D01*
X1662228Y505184D01*
X1662179Y505569D01*
X1662167Y505958D01*
X1662101Y506188D01*
X1662071Y506426D01*
X1661928Y506787D01*
X1661820Y507161D01*
X1661698Y507368D01*
X1661610Y507591D01*
X1661382Y507905D01*
X1661184Y508240D01*
X1660922Y508539D01*
X1660874Y508604D01*
X1660837Y508635D01*
X1660763Y508719D01*
X1630766Y538716D01*
X1630459Y538955D01*
X1630176Y539221D01*
X1629966Y539337D01*
X1629776Y539484D01*
X1629420Y539638D01*
X1629079Y539826D01*
X1628847Y539886D01*
X1628627Y539981D01*
X1628244Y540042D01*
X1627867Y540140D01*
X1627470Y540165D01*
X1627390Y540178D01*
X1627342Y540173D01*
X1627231Y540180D01*
X782845Y540180D01*
X717346Y605680D01*
X717346Y740790D01*
X717331Y740904D01*
X717340Y741019D01*
X717253Y741524D01*
X717189Y742032D01*
X717147Y742139D01*
X717127Y742253D01*
X716916Y742722D01*
X716728Y743197D01*
X716661Y743290D01*
X716613Y743395D01*
X716293Y743796D01*
X715992Y744210D01*
X715903Y744284D01*
X715832Y744374D01*
X715423Y744682D01*
X715028Y745009D01*
X714924Y745058D01*
X714832Y745128D01*
X714259Y745409D01*
X713618Y745674D01*
X706304Y752988D01*
X703438Y759909D01*
X703168Y760382D01*
X702911Y760868D01*
X702857Y760927D01*
X702817Y760997D01*
X702437Y761389D01*
X702069Y761795D01*
X702002Y761839D01*
X701946Y761896D01*
X701478Y762183D01*
X701022Y762483D01*
X700947Y762509D01*
X700878Y762551D01*
X700355Y762712D01*
X699838Y762890D01*
X699758Y762896D01*
X699681Y762920D01*
X699135Y762946D01*
X698590Y762990D01*
X698511Y762976D01*
X698431Y762980D01*
X697895Y762869D01*
X697356Y762776D01*
X697282Y762743D01*
X697204Y762727D01*
X696713Y762487D01*
X696213Y762262D01*
X696151Y762212D01*
X696079Y762177D01*
X695662Y761822D01*
X695235Y761481D01*
X695187Y761417D01*
X695125Y761365D01*
X694810Y760917D01*
X694481Y760481D01*
X694432Y760381D01*
X694404Y760341D01*
X694375Y760265D01*
X694200Y759909D01*
X691334Y752988D01*
X684019Y745674D01*
X683378Y745409D01*
X683278Y745352D01*
X683168Y745316D01*
X682735Y745042D01*
X682290Y744788D01*
X682208Y744708D01*
X682110Y744647D01*
X681759Y744273D01*
X681391Y743917D01*
X681330Y743819D01*
X681251Y743735D01*
X681004Y743287D01*
X680736Y742850D01*
X680702Y742739D01*
X680646Y742638D01*
X680518Y742142D01*
X680367Y741653D01*
X680361Y741538D01*
X680333Y741426D01*
X680292Y740790D01*
X680292Y479068D01*
X680341Y478683D01*
X680352Y478294D01*
X680419Y478064D01*
X680449Y477826D01*
X680592Y477465D01*
X680700Y477091D01*
X680821Y476884D01*
X680910Y476661D01*
X681138Y476347D01*
X681335Y476012D01*
X681598Y475713D01*
X681645Y475648D01*
X681682Y475617D01*
X681756Y475533D01*
X967659Y189630D01*
X967967Y189392D01*
X968249Y189125D01*
X968459Y189010D01*
X968649Y188863D01*
X969006Y188708D01*
X969346Y188520D01*
X969578Y188460D01*
X969798Y188365D01*
X970181Y188304D01*
X970558Y188207D01*
X970955Y188181D01*
X971035Y188169D01*
X971083Y188173D01*
X971194Y188166D01*
X1173861Y188166D01*
X1173975Y188180D01*
X1174090Y188171D01*
X1174595Y188259D01*
X1175103Y188323D01*
X1175210Y188365D01*
X1175324Y188385D01*
X1175793Y188596D01*
X1176268Y188784D01*
X1176361Y188851D01*
X1176466Y188898D01*
X1176867Y189219D01*
X1177281Y189519D01*
X1177355Y189608D01*
X1177445Y189680D01*
X1177753Y190089D01*
X1178080Y190484D01*
X1178129Y190588D01*
X1178199Y190680D01*
X1178480Y191252D01*
X1178745Y191893D01*
X1186059Y199208D01*
X1195616Y203166D01*
X1205959Y203166D01*
X1215515Y199208D01*
X1222830Y191893D01*
X1226788Y182337D01*
X1226788Y171993D01*
X1222830Y162437D01*
X1215515Y155123D01*
X1205959Y151165D01*
X1195616Y151165D01*
X1186059Y155123D01*
X1178745Y162437D01*
X1178480Y163078D01*
X1178422Y163179D01*
X1178387Y163288D01*
X1178112Y163722D01*
X1177859Y164166D01*
X1177779Y164249D01*
X1177717Y164346D01*
X1177344Y164698D01*
X1176988Y165066D01*
X1176890Y165126D01*
X1176806Y165205D01*
X1176358Y165453D01*
X1175920Y165721D01*
X1175810Y165755D01*
X1175709Y165810D01*
X1175213Y165939D01*
X1174724Y166090D01*
X1174609Y166095D01*
X1174497Y166124D01*
X1173861Y166165D01*
X960010Y166165D01*
X658291Y467884D01*
X658291Y740790D01*
X658276Y740904D01*
X658285Y741019D01*
X658198Y741524D01*
X658134Y742032D01*
X658091Y742139D01*
X658072Y742253D01*
X657861Y742722D01*
X657673Y743197D01*
X657606Y743290D01*
X657558Y743395D01*
X657238Y743796D01*
X656937Y744210D01*
X656848Y744284D01*
X656777Y744374D01*
X656368Y744682D01*
X655973Y745009D01*
X655869Y745058D01*
X655776Y745128D01*
X655204Y745409D01*
X654563Y745674D01*
X647249Y752988D01*
X644382Y759909D01*
X644112Y760382D01*
X643856Y760868D01*
X643801Y760927D01*
X643762Y760997D01*
X643382Y761389D01*
X643013Y761795D01*
X642947Y761839D01*
X642891Y761896D01*
X642423Y762183D01*
X641967Y762483D01*
X641892Y762509D01*
X641823Y762551D01*
X641300Y762712D01*
X640783Y762890D01*
X640703Y762896D01*
X640626Y762920D01*
X640080Y762946D01*
X639535Y762990D01*
X639456Y762976D01*
X639375Y762980D01*
X638840Y762869D01*
X638301Y762776D01*
X638227Y762743D01*
X638149Y762727D01*
X637657Y762487D01*
X637158Y762262D01*
X637096Y762212D01*
X637024Y762177D01*
X636607Y761822D01*
X636180Y761481D01*
X636132Y761417D01*
X636070Y761365D01*
X635754Y760917D01*
X635426Y760481D01*
X635377Y760381D01*
X635349Y760341D01*
X635320Y760265D01*
X635145Y759909D01*
X632278Y752988D01*
X624964Y745674D01*
X624323Y745409D01*
X624223Y745352D01*
X624113Y745316D01*
X623680Y745042D01*
X623235Y744788D01*
X623153Y744708D01*
X623055Y744647D01*
X622703Y744273D01*
X622336Y743917D01*
X622275Y743819D01*
X622196Y743735D01*
X621949Y743287D01*
X621681Y742850D01*
X621647Y742739D01*
X621591Y742638D01*
X621463Y742142D01*
X621312Y741653D01*
X621306Y741538D01*
X621277Y741426D01*
X621237Y740790D01*
X621237Y479068D01*
X621286Y478683D01*
X621297Y478294D01*
X621364Y478064D01*
X621394Y477826D01*
X621537Y477465D01*
X621644Y477091D01*
X621766Y476884D01*
X621854Y476661D01*
X622083Y476347D01*
X622280Y476012D01*
X622543Y475713D01*
X622590Y475648D01*
X622627Y475617D01*
X622701Y475533D01*
X1046399Y51835D01*
X1046707Y51596D01*
X1046989Y51330D01*
X1047199Y51214D01*
X1047389Y51067D01*
X1047746Y50913D01*
X1048086Y50725D01*
X1048318Y50665D01*
X1048538Y50570D01*
X1048922Y50509D01*
X1049298Y50411D01*
X1049695Y50386D01*
X1049775Y50373D01*
X1049823Y50378D01*
X1049934Y50371D01*
X1169787Y50371D01*
X1170252Y50429D01*
X1170719Y50458D01*
X1170871Y50508D01*
X1171030Y50528D01*
X1171465Y50700D01*
X1171910Y50844D01*
X1172046Y50930D01*
X1172194Y50988D01*
X1172572Y51263D01*
X1172969Y51513D01*
X1173078Y51630D01*
X1173208Y51724D01*
X1173506Y52084D01*
X1173827Y52425D01*
X1173905Y52565D01*
X1174007Y52688D01*
X1174206Y53112D01*
X1174432Y53521D01*
X1174472Y53676D01*
X1174541Y53821D01*
X1174629Y54280D01*
X1174746Y54734D01*
X1174761Y54972D01*
X1174776Y55051D01*
X1174771Y55132D01*
X1174787Y55370D01*
X1174787Y64227D01*
X1178745Y73783D01*
X1186059Y81097D01*
X1195616Y85056D01*
X1205959Y85056D01*
X1215515Y81097D01*
X1222830Y73783D01*
X1226788Y64227D01*
X1226788Y53883D01*
X1222830Y44327D01*
X1215515Y37013D01*
X1213826Y36313D01*
X1213795Y36295D01*
X1213761Y36286D01*
X1213250Y35985D01*
X1212738Y35692D01*
X1212713Y35668D01*
X1212682Y35650D01*
X1212204Y35229D01*
X1205344Y28369D01*
X1038750Y28369D01*
G37*
%LPD*%
%LPC*%
G36*
X861585Y697661D02*
X861585Y697661D01*
X857718Y701528D01*
X857627Y701598D01*
X857552Y701686D01*
X857134Y701981D01*
X856729Y702295D01*
X856623Y702341D01*
X856529Y702408D01*
X856050Y702589D01*
X855579Y702793D01*
X855465Y702811D01*
X855358Y702852D01*
X854849Y702909D01*
X854343Y702989D01*
X854228Y702979D01*
X854113Y702992D01*
X853606Y702920D01*
X853096Y702872D01*
X852987Y702833D01*
X852873Y702817D01*
X852270Y702611D01*
X851628Y702346D01*
X841285Y702346D01*
X831729Y706304D01*
X824414Y713618D01*
X820456Y723175D01*
X820456Y733518D01*
X824414Y743074D01*
X831729Y750389D01*
X841285Y754347D01*
X851628Y754347D01*
X861185Y750389D01*
X868499Y743074D01*
X872457Y733518D01*
X872457Y724661D01*
X872516Y724197D01*
X872545Y723730D01*
X872594Y723578D01*
X872614Y723419D01*
X872786Y722984D01*
X872930Y722539D01*
X873016Y722403D01*
X873075Y722254D01*
X873349Y721876D01*
X873600Y721480D01*
X873717Y721370D01*
X873811Y721241D01*
X874171Y720943D01*
X874512Y720622D01*
X874652Y720544D01*
X874775Y720442D01*
X875198Y720243D01*
X875608Y720016D01*
X875763Y719976D01*
X875908Y719908D01*
X876367Y719820D01*
X876820Y719703D01*
X877059Y719687D01*
X877138Y719672D01*
X877219Y719677D01*
X877457Y719662D01*
X879199Y719662D01*
X879585Y719711D01*
X879973Y719722D01*
X880204Y719789D01*
X880442Y719819D01*
X880803Y719962D01*
X881177Y720070D01*
X881383Y720191D01*
X881606Y720280D01*
X881921Y720508D01*
X882256Y720705D01*
X882554Y720968D01*
X882620Y721015D01*
X882651Y721053D01*
X882734Y721126D01*
X893047Y731439D01*
X893285Y731746D01*
X893552Y732029D01*
X893667Y732239D01*
X893814Y732428D01*
X893969Y732785D01*
X894157Y733125D01*
X894217Y733357D01*
X894312Y733578D01*
X894373Y733961D01*
X894470Y734338D01*
X894496Y734734D01*
X894508Y734814D01*
X894504Y734862D01*
X894511Y734974D01*
X894511Y898270D01*
X894497Y898385D01*
X894506Y898499D01*
X894418Y899004D01*
X894354Y899513D01*
X894312Y899620D01*
X894292Y899733D01*
X894081Y900202D01*
X893893Y900677D01*
X893826Y900770D01*
X893779Y900876D01*
X893458Y901277D01*
X893158Y901691D01*
X893069Y901764D01*
X892997Y901854D01*
X892588Y902162D01*
X892193Y902489D01*
X892089Y902539D01*
X891997Y902608D01*
X891425Y902889D01*
X890784Y903155D01*
X883469Y910469D01*
X879511Y920025D01*
X879511Y930369D01*
X883469Y939925D01*
X890784Y947239D01*
X900340Y951197D01*
X910684Y951197D01*
X920240Y947239D01*
X927554Y939925D01*
X931512Y930369D01*
X931512Y920025D01*
X927554Y910469D01*
X920240Y903155D01*
X919599Y902889D01*
X919499Y902832D01*
X919389Y902796D01*
X918955Y902522D01*
X918511Y902269D01*
X918428Y902189D01*
X918331Y902127D01*
X917979Y901754D01*
X917611Y901397D01*
X917551Y901299D01*
X917472Y901215D01*
X917225Y900767D01*
X916956Y900330D01*
X916922Y900220D01*
X916867Y900119D01*
X916738Y899622D01*
X916587Y899133D01*
X916582Y899018D01*
X916553Y898906D01*
X916512Y898270D01*
X916512Y788187D01*
X916581Y787643D01*
X916632Y787099D01*
X916659Y787024D01*
X916669Y786944D01*
X916871Y786435D01*
X917055Y785921D01*
X917101Y785854D01*
X917130Y785780D01*
X917450Y785339D01*
X917758Y784884D01*
X917819Y784831D01*
X917866Y784766D01*
X918287Y784418D01*
X918697Y784055D01*
X918768Y784019D01*
X918830Y783968D01*
X919325Y783734D01*
X919812Y783485D01*
X919890Y783468D01*
X919963Y783433D01*
X920500Y783330D01*
X921034Y783210D01*
X921114Y783213D01*
X921193Y783198D01*
X921738Y783231D01*
X922286Y783248D01*
X922363Y783270D01*
X922443Y783275D01*
X922965Y783444D01*
X923489Y783595D01*
X923558Y783636D01*
X923634Y783661D01*
X924098Y783954D01*
X924568Y784231D01*
X924651Y784304D01*
X924693Y784330D01*
X924749Y784390D01*
X925047Y784652D01*
X930154Y789759D01*
X939710Y793717D01*
X950054Y793717D01*
X952897Y792539D01*
X953424Y792395D01*
X953948Y792234D01*
X954028Y792230D01*
X954105Y792209D01*
X954652Y792200D01*
X955199Y792174D01*
X955277Y792190D01*
X955357Y792189D01*
X955889Y792316D01*
X956425Y792427D01*
X956497Y792462D01*
X956575Y792480D01*
X957059Y792736D01*
X957550Y792976D01*
X957611Y793028D01*
X957682Y793066D01*
X958088Y793434D01*
X958504Y793789D01*
X958550Y793854D01*
X958609Y793908D01*
X958910Y794365D01*
X959225Y794812D01*
X959254Y794887D01*
X959298Y794954D01*
X959475Y795470D01*
X959670Y795983D01*
X959679Y796063D01*
X959705Y796138D01*
X959748Y796683D01*
X959809Y797227D01*
X959798Y797307D01*
X959804Y797387D01*
X959711Y797923D01*
X959635Y798468D01*
X959599Y798573D01*
X959591Y798621D01*
X959558Y798694D01*
X959429Y799071D01*
X958251Y801915D01*
X958251Y812258D01*
X962210Y821815D01*
X969524Y829129D01*
X970165Y829394D01*
X970265Y829452D01*
X970375Y829487D01*
X970809Y829761D01*
X971253Y830015D01*
X971335Y830095D01*
X971433Y830156D01*
X971785Y830530D01*
X972152Y830886D01*
X972213Y830984D01*
X972292Y831068D01*
X972539Y831516D01*
X972807Y831953D01*
X972841Y832064D01*
X972897Y832165D01*
X973025Y832661D01*
X973176Y833150D01*
X973182Y833265D01*
X973211Y833377D01*
X973251Y834013D01*
X973251Y997310D01*
X973203Y997695D01*
X973191Y998084D01*
X973124Y998314D01*
X973094Y998552D01*
X972952Y998913D01*
X972844Y999287D01*
X972722Y999494D01*
X972634Y999717D01*
X972405Y1000031D01*
X972208Y1000366D01*
X971945Y1000664D01*
X971898Y1000730D01*
X971861Y1000761D01*
X971787Y1000845D01*
X961475Y1011157D01*
X961167Y1011396D01*
X960884Y1011662D01*
X960675Y1011778D01*
X960485Y1011925D01*
X960128Y1012079D01*
X959788Y1012267D01*
X959556Y1012327D01*
X959336Y1012422D01*
X958952Y1012483D01*
X958576Y1012581D01*
X958179Y1012606D01*
X958099Y1012619D01*
X958051Y1012614D01*
X957939Y1012621D01*
X54499Y1012621D01*
X48054Y1019065D01*
X48054Y1587247D01*
X48040Y1587361D01*
X48049Y1587476D01*
X47962Y1587981D01*
X47898Y1588489D01*
X47855Y1588596D01*
X47836Y1588710D01*
X47625Y1589179D01*
X47437Y1589654D01*
X47369Y1589746D01*
X47322Y1589852D01*
X47002Y1590253D01*
X46701Y1590667D01*
X46612Y1590741D01*
X46540Y1590831D01*
X46132Y1591139D01*
X45737Y1591466D01*
X45632Y1591515D01*
X45540Y1591584D01*
X44968Y1591865D01*
X44327Y1592131D01*
X37013Y1599445D01*
X33054Y1609001D01*
X33054Y1619345D01*
X37013Y1628901D01*
X44327Y1636216D01*
X53883Y1640174D01*
X64227Y1640174D01*
X73783Y1636216D01*
X81097Y1628901D01*
X85056Y1619345D01*
X85056Y1609001D01*
X81097Y1599445D01*
X73783Y1592131D01*
X73142Y1591865D01*
X73042Y1591808D01*
X72932Y1591773D01*
X72498Y1591498D01*
X72054Y1591245D01*
X71972Y1591165D01*
X71874Y1591103D01*
X71522Y1590730D01*
X71155Y1590374D01*
X71094Y1590275D01*
X71015Y1590192D01*
X70768Y1589743D01*
X70500Y1589306D01*
X70466Y1589196D01*
X70410Y1589095D01*
X70282Y1588599D01*
X70131Y1588109D01*
X70125Y1587995D01*
X70096Y1587883D01*
X70056Y1587247D01*
X70056Y1039622D01*
X70114Y1039158D01*
X70143Y1038691D01*
X70193Y1038538D01*
X70213Y1038379D01*
X70385Y1037945D01*
X70529Y1037499D01*
X70615Y1037364D01*
X70673Y1037215D01*
X70948Y1036837D01*
X71198Y1036441D01*
X71315Y1036331D01*
X71409Y1036201D01*
X71769Y1035903D01*
X72110Y1035582D01*
X72250Y1035505D01*
X72374Y1035403D01*
X72797Y1035203D01*
X73206Y1034977D01*
X73361Y1034937D01*
X73506Y1034869D01*
X73965Y1034781D01*
X74419Y1034663D01*
X74657Y1034648D01*
X74736Y1034633D01*
X74817Y1034638D01*
X75055Y1034623D01*
X969123Y1034623D01*
X995253Y1008493D01*
X995253Y834013D01*
X995267Y833899D01*
X995258Y833784D01*
X995345Y833279D01*
X995409Y832771D01*
X995452Y832664D01*
X995471Y832550D01*
X995682Y832081D01*
X995870Y831606D01*
X995938Y831513D01*
X995985Y831408D01*
X996305Y831007D01*
X996606Y830593D01*
X996695Y830519D01*
X996767Y830429D01*
X997175Y830121D01*
X997570Y829794D01*
X997675Y829745D01*
X997767Y829675D01*
X998339Y829394D01*
X998980Y829129D01*
X1006294Y821815D01*
X1010253Y812258D01*
X1010253Y801915D01*
X1006294Y792358D01*
X1001187Y787251D01*
X1000852Y786819D01*
X1000503Y786398D01*
X1000469Y786325D01*
X1000420Y786262D01*
X1000202Y785759D01*
X999969Y785265D01*
X999954Y785187D01*
X999922Y785113D01*
X999836Y784572D01*
X999733Y784035D01*
X999738Y783955D01*
X999726Y783876D01*
X999777Y783332D01*
X999810Y782785D01*
X999835Y782709D01*
X999843Y782629D01*
X1000027Y782115D01*
X1000196Y781594D01*
X1000239Y781526D01*
X1000266Y781450D01*
X1000572Y780999D01*
X1000866Y780535D01*
X1000924Y780480D01*
X1000969Y780414D01*
X1001379Y780052D01*
X1001777Y779677D01*
X1001847Y779638D01*
X1001907Y779585D01*
X1002397Y779335D01*
X1002874Y779071D01*
X1002951Y779051D01*
X1003023Y779015D01*
X1003556Y778895D01*
X1004086Y778758D01*
X1004197Y778751D01*
X1004244Y778740D01*
X1004326Y778742D01*
X1004722Y778717D01*
X1016995Y778717D01*
X1017380Y778766D01*
X1017769Y778777D01*
X1017999Y778844D01*
X1018237Y778874D01*
X1018598Y779017D01*
X1018972Y779125D01*
X1019179Y779247D01*
X1019402Y779335D01*
X1019716Y779563D01*
X1020051Y779760D01*
X1020350Y780023D01*
X1020415Y780070D01*
X1020446Y780108D01*
X1020530Y780181D01*
X1070212Y829864D01*
X1070451Y830171D01*
X1070717Y830454D01*
X1070833Y830664D01*
X1070980Y830853D01*
X1071134Y831210D01*
X1071322Y831550D01*
X1071382Y831783D01*
X1071477Y832003D01*
X1071538Y832386D01*
X1071636Y832763D01*
X1071661Y833160D01*
X1071674Y833240D01*
X1071669Y833288D01*
X1071676Y833399D01*
X1071676Y1470446D01*
X1071662Y1470560D01*
X1071671Y1470675D01*
X1071584Y1471180D01*
X1071520Y1471688D01*
X1071477Y1471795D01*
X1071458Y1471909D01*
X1071247Y1472377D01*
X1071059Y1472853D01*
X1070991Y1472946D01*
X1070944Y1473051D01*
X1070624Y1473452D01*
X1070323Y1473866D01*
X1070234Y1473940D01*
X1070163Y1474030D01*
X1069754Y1474338D01*
X1069359Y1474665D01*
X1069254Y1474714D01*
X1069162Y1474783D01*
X1068590Y1475064D01*
X1065714Y1476256D01*
X1058399Y1483570D01*
X1054441Y1493126D01*
X1054441Y1503470D01*
X1058399Y1513026D01*
X1065714Y1520341D01*
X1075270Y1524299D01*
X1085614Y1524299D01*
X1095170Y1520341D01*
X1102484Y1513026D01*
X1106442Y1503470D01*
X1106442Y1493126D01*
X1102484Y1483570D01*
X1095142Y1476228D01*
X1094904Y1475921D01*
X1094637Y1475638D01*
X1094521Y1475428D01*
X1094374Y1475239D01*
X1094220Y1474882D01*
X1094032Y1474542D01*
X1093972Y1474309D01*
X1093877Y1474089D01*
X1093816Y1473706D01*
X1093718Y1473329D01*
X1093693Y1472932D01*
X1093680Y1472852D01*
X1093685Y1472804D01*
X1093678Y1472693D01*
X1093678Y822215D01*
X1028179Y756716D01*
X971808Y756716D01*
X971694Y756701D01*
X971579Y756711D01*
X971074Y756623D01*
X970566Y756559D01*
X970459Y756517D01*
X970345Y756497D01*
X969876Y756286D01*
X969401Y756098D01*
X969309Y756031D01*
X969203Y755983D01*
X968802Y755663D01*
X968388Y755362D01*
X968314Y755273D01*
X968224Y755202D01*
X967916Y754793D01*
X967589Y754398D01*
X967540Y754294D01*
X967471Y754202D01*
X967190Y753629D01*
X966924Y752988D01*
X959610Y745674D01*
X950054Y741716D01*
X939710Y741716D01*
X930154Y745674D01*
X925047Y750781D01*
X924615Y751116D01*
X924193Y751465D01*
X924121Y751500D01*
X924057Y751549D01*
X923554Y751767D01*
X923060Y752000D01*
X922982Y752015D01*
X922908Y752047D01*
X922367Y752132D01*
X921830Y752235D01*
X921750Y752230D01*
X921671Y752243D01*
X921127Y752192D01*
X920580Y752158D01*
X920504Y752133D01*
X920424Y752126D01*
X919911Y751941D01*
X919389Y751772D01*
X919321Y751729D01*
X919246Y751702D01*
X918795Y751396D01*
X918331Y751103D01*
X918275Y751044D01*
X918209Y750999D01*
X917847Y750590D01*
X917472Y750191D01*
X917433Y750121D01*
X917380Y750061D01*
X917130Y749572D01*
X916867Y749095D01*
X916847Y749017D01*
X916810Y748946D01*
X916690Y748412D01*
X916553Y747882D01*
X916546Y747771D01*
X916535Y747724D01*
X916538Y747643D01*
X916512Y747246D01*
X916512Y723790D01*
X890383Y697661D01*
X861585Y697661D01*
G37*
%LPD*%
%LPC*%
G36*
X526324Y1332267D02*
X526324Y1332267D01*
X516768Y1336225D01*
X509454Y1343540D01*
X505495Y1353096D01*
X505495Y1363439D01*
X505761Y1364081D01*
X505792Y1364192D01*
X505844Y1364295D01*
X505956Y1364793D01*
X506092Y1365289D01*
X506094Y1365404D01*
X506119Y1365516D01*
X506103Y1366028D01*
X506112Y1366541D01*
X506085Y1366653D01*
X506081Y1366768D01*
X505939Y1367261D01*
X505820Y1367759D01*
X505766Y1367861D01*
X505734Y1367971D01*
X505474Y1368414D01*
X505234Y1368866D01*
X505157Y1368951D01*
X505098Y1369051D01*
X504677Y1369529D01*
X449664Y1424543D01*
X441755Y1432451D01*
X441755Y1567562D01*
X441741Y1567676D01*
X441750Y1567791D01*
X441663Y1568296D01*
X441598Y1568804D01*
X441556Y1568911D01*
X441536Y1569025D01*
X441326Y1569493D01*
X441138Y1569969D01*
X441070Y1570061D01*
X441023Y1570167D01*
X440702Y1570568D01*
X440402Y1570982D01*
X440313Y1571056D01*
X440241Y1571146D01*
X439832Y1571454D01*
X439437Y1571781D01*
X439333Y1571830D01*
X439241Y1571899D01*
X438669Y1572180D01*
X438028Y1572446D01*
X430713Y1579760D01*
X426755Y1589316D01*
X426755Y1599660D01*
X430713Y1609216D01*
X438028Y1616531D01*
X447584Y1620489D01*
X457928Y1620489D01*
X467484Y1616531D01*
X474798Y1609216D01*
X478757Y1599660D01*
X478757Y1589316D01*
X474798Y1579760D01*
X467484Y1572446D01*
X466843Y1572180D01*
X466743Y1572123D01*
X466633Y1572088D01*
X466199Y1571813D01*
X465755Y1571560D01*
X465672Y1571480D01*
X465575Y1571418D01*
X465223Y1571045D01*
X464855Y1570689D01*
X464795Y1570590D01*
X464716Y1570507D01*
X464469Y1570058D01*
X464201Y1569621D01*
X464167Y1569511D01*
X464111Y1569410D01*
X463982Y1568914D01*
X463832Y1568424D01*
X463826Y1568310D01*
X463797Y1568198D01*
X463757Y1567562D01*
X463757Y1443635D01*
X463805Y1443250D01*
X463817Y1442861D01*
X463883Y1442631D01*
X463913Y1442393D01*
X464056Y1442032D01*
X464164Y1441658D01*
X464286Y1441451D01*
X464374Y1441228D01*
X464602Y1440914D01*
X464800Y1440579D01*
X465062Y1440280D01*
X465110Y1440215D01*
X465147Y1440184D01*
X465221Y1440100D01*
X520234Y1385086D01*
X520326Y1385015D01*
X520400Y1384928D01*
X520818Y1384633D01*
X521224Y1384319D01*
X521330Y1384273D01*
X521424Y1384206D01*
X521903Y1384024D01*
X522373Y1383821D01*
X522487Y1383803D01*
X522595Y1383762D01*
X523104Y1383705D01*
X523610Y1383625D01*
X523725Y1383635D01*
X523839Y1383623D01*
X524347Y1383694D01*
X524857Y1383742D01*
X524965Y1383781D01*
X525079Y1383797D01*
X525683Y1384003D01*
X526324Y1384268D01*
X536924Y1384268D01*
X537468Y1384337D01*
X538011Y1384388D01*
X538087Y1384415D01*
X538166Y1384425D01*
X538675Y1384627D01*
X539190Y1384811D01*
X539256Y1384856D01*
X539331Y1384886D01*
X539774Y1385207D01*
X540226Y1385514D01*
X540280Y1385574D01*
X540344Y1385622D01*
X540693Y1386042D01*
X541056Y1386453D01*
X541092Y1386525D01*
X541143Y1386586D01*
X541376Y1387079D01*
X541625Y1387568D01*
X541643Y1387646D01*
X541677Y1387719D01*
X541780Y1388255D01*
X541900Y1388790D01*
X541898Y1388870D01*
X541913Y1388949D01*
X541879Y1389492D01*
X541863Y1390042D01*
X541841Y1390119D01*
X541836Y1390199D01*
X541667Y1390719D01*
X541516Y1391245D01*
X541475Y1391314D01*
X541450Y1391390D01*
X541157Y1391854D01*
X540880Y1392324D01*
X540807Y1392407D01*
X540781Y1392449D01*
X540721Y1392505D01*
X540459Y1392803D01*
X508719Y1424543D01*
X500810Y1432451D01*
X500810Y1500619D01*
X625365Y1625174D01*
X918569Y1625174D01*
X918955Y1625223D01*
X919344Y1625234D01*
X919574Y1625301D01*
X919812Y1625331D01*
X920173Y1625474D01*
X920547Y1625581D01*
X920753Y1625703D01*
X920976Y1625791D01*
X921291Y1626020D01*
X921626Y1626217D01*
X921924Y1626480D01*
X921990Y1626527D01*
X922021Y1626564D01*
X922104Y1626638D01*
X929267Y1633801D01*
X929506Y1634108D01*
X929772Y1634391D01*
X929888Y1634601D01*
X930035Y1634790D01*
X930189Y1635147D01*
X930377Y1635487D01*
X930437Y1635720D01*
X930533Y1635940D01*
X930594Y1636323D01*
X930691Y1636700D01*
X930716Y1637097D01*
X930729Y1637177D01*
X930724Y1637225D01*
X930732Y1637336D01*
X930732Y1698557D01*
X930717Y1698672D01*
X930726Y1698786D01*
X930639Y1699291D01*
X930575Y1699800D01*
X930532Y1699907D01*
X930513Y1700020D01*
X930302Y1700488D01*
X930114Y1700964D01*
X930046Y1701057D01*
X929999Y1701162D01*
X929679Y1701563D01*
X929378Y1701978D01*
X929289Y1702051D01*
X929218Y1702141D01*
X928809Y1702449D01*
X928414Y1702776D01*
X928310Y1702826D01*
X928218Y1702895D01*
X927645Y1703176D01*
X920207Y1706257D01*
X909517Y1716947D01*
X903732Y1730914D01*
X903732Y1810031D01*
X909517Y1823998D01*
X920207Y1834688D01*
X934173Y1840473D01*
X949291Y1840473D01*
X963258Y1834688D01*
X973948Y1823998D01*
X979733Y1810031D01*
X979733Y1730914D01*
X973948Y1716947D01*
X963258Y1706257D01*
X955819Y1703176D01*
X955719Y1703119D01*
X955609Y1703083D01*
X955176Y1702809D01*
X954731Y1702555D01*
X954648Y1702475D01*
X954551Y1702414D01*
X954199Y1702040D01*
X953832Y1701684D01*
X953772Y1701586D01*
X953692Y1701502D01*
X953445Y1701054D01*
X953177Y1700617D01*
X953143Y1700506D01*
X953087Y1700406D01*
X952959Y1699909D01*
X952808Y1699420D01*
X952802Y1699305D01*
X952773Y1699193D01*
X952733Y1698557D01*
X952733Y1626152D01*
X929753Y1603172D01*
X636549Y1603172D01*
X636163Y1603124D01*
X635774Y1603112D01*
X635544Y1603046D01*
X635306Y1603016D01*
X634945Y1602873D01*
X634571Y1602765D01*
X634365Y1602643D01*
X634142Y1602555D01*
X633827Y1602327D01*
X633492Y1602129D01*
X633194Y1601867D01*
X633128Y1601819D01*
X633097Y1601782D01*
X633014Y1601708D01*
X524276Y1492971D01*
X524037Y1492663D01*
X523771Y1492381D01*
X523655Y1492171D01*
X523508Y1491981D01*
X523354Y1491624D01*
X523166Y1491284D01*
X523106Y1491052D01*
X523011Y1490832D01*
X522950Y1490448D01*
X522852Y1490072D01*
X522827Y1489675D01*
X522814Y1489595D01*
X522819Y1489547D01*
X522812Y1489436D01*
X522812Y1443635D01*
X522860Y1443250D01*
X522872Y1442861D01*
X522938Y1442631D01*
X522969Y1442393D01*
X523111Y1442032D01*
X523219Y1441658D01*
X523341Y1441451D01*
X523429Y1441228D01*
X523657Y1440914D01*
X523855Y1440579D01*
X524117Y1440280D01*
X524165Y1440215D01*
X524202Y1440184D01*
X524276Y1440100D01*
X579290Y1385086D01*
X579381Y1385015D01*
X579455Y1384928D01*
X579873Y1384633D01*
X580279Y1384319D01*
X580385Y1384273D01*
X580479Y1384206D01*
X580958Y1384024D01*
X581428Y1383821D01*
X581542Y1383803D01*
X581650Y1383762D01*
X582159Y1383705D01*
X582665Y1383625D01*
X582780Y1383635D01*
X582894Y1383623D01*
X583402Y1383694D01*
X583912Y1383742D01*
X584021Y1383781D01*
X584135Y1383797D01*
X584738Y1384003D01*
X585379Y1384268D01*
X595723Y1384268D01*
X605279Y1380310D01*
X612594Y1372996D01*
X616552Y1363439D01*
X616552Y1353096D01*
X612594Y1343540D01*
X605279Y1336225D01*
X595723Y1332267D01*
X585379Y1332267D01*
X575823Y1336225D01*
X568509Y1343539D01*
X565642Y1350460D01*
X565371Y1350936D01*
X565116Y1351419D01*
X565062Y1351478D01*
X565022Y1351548D01*
X564641Y1351942D01*
X564273Y1352346D01*
X564207Y1352390D01*
X564151Y1352447D01*
X563683Y1352734D01*
X563227Y1353034D01*
X563152Y1353060D01*
X563083Y1353102D01*
X562559Y1353264D01*
X562043Y1353441D01*
X561963Y1353447D01*
X561886Y1353471D01*
X561340Y1353497D01*
X560795Y1353541D01*
X560716Y1353527D01*
X560635Y1353531D01*
X560100Y1353421D01*
X559561Y1353327D01*
X559487Y1353294D01*
X559409Y1353278D01*
X558916Y1353037D01*
X558418Y1352814D01*
X558356Y1352764D01*
X558284Y1352728D01*
X557868Y1352374D01*
X557440Y1352032D01*
X557391Y1351968D01*
X557330Y1351916D01*
X557017Y1351471D01*
X556686Y1351032D01*
X556637Y1350932D01*
X556609Y1350893D01*
X556580Y1350817D01*
X556405Y1350460D01*
X553538Y1343540D01*
X546224Y1336225D01*
X536668Y1332267D01*
X526324Y1332267D01*
G37*
%LPD*%
%LPC*%
G36*
X703490Y229905D02*
X703490Y229905D01*
X693933Y233863D01*
X686619Y241177D01*
X682661Y250734D01*
X682661Y261077D01*
X682926Y261719D01*
X682957Y261830D01*
X683009Y261932D01*
X683121Y262431D01*
X683257Y262927D01*
X683259Y263042D01*
X683284Y263154D01*
X683269Y263666D01*
X683277Y264179D01*
X683250Y264291D01*
X683247Y264406D01*
X683104Y264899D01*
X682985Y265397D01*
X682931Y265498D01*
X682899Y265609D01*
X682639Y266051D01*
X682400Y266504D01*
X682322Y266589D01*
X682264Y266688D01*
X681843Y267167D01*
X528404Y420606D01*
X528096Y420844D01*
X527814Y421111D01*
X527604Y421227D01*
X527414Y421374D01*
X527057Y421528D01*
X526717Y421716D01*
X526485Y421776D01*
X526265Y421871D01*
X525882Y421932D01*
X525505Y422030D01*
X525108Y422055D01*
X525028Y422068D01*
X524980Y422063D01*
X524869Y422070D01*
X515447Y422070D01*
X514903Y422002D01*
X514359Y421950D01*
X514284Y421923D01*
X514204Y421913D01*
X513696Y421712D01*
X513180Y421527D01*
X513114Y421482D01*
X513040Y421453D01*
X512597Y421131D01*
X512144Y420824D01*
X512091Y420764D01*
X512026Y420717D01*
X511676Y420294D01*
X511315Y419885D01*
X511278Y419814D01*
X511227Y419752D01*
X510994Y419258D01*
X510745Y418770D01*
X510727Y418692D01*
X510693Y418620D01*
X510590Y418082D01*
X510470Y417548D01*
X510473Y417468D01*
X510458Y417390D01*
X510491Y416844D01*
X510508Y416297D01*
X510530Y416220D01*
X510535Y416140D01*
X510703Y415618D01*
X510855Y415094D01*
X510896Y415025D01*
X510920Y414948D01*
X511214Y414484D01*
X511491Y414014D01*
X511564Y413931D01*
X511590Y413890D01*
X511650Y413833D01*
X511912Y413536D01*
X514168Y411279D01*
X518127Y401723D01*
X518127Y391379D01*
X514168Y381823D01*
X506854Y374509D01*
X497298Y370550D01*
X486954Y370550D01*
X477398Y374509D01*
X470671Y381236D01*
X470363Y381474D01*
X470081Y381741D01*
X469871Y381856D01*
X469681Y382003D01*
X469324Y382158D01*
X468984Y382346D01*
X468752Y382406D01*
X468532Y382501D01*
X468148Y382562D01*
X467772Y382659D01*
X467375Y382685D01*
X467295Y382697D01*
X467247Y382693D01*
X467136Y382700D01*
X321588Y382700D01*
X321202Y382651D01*
X320814Y382640D01*
X320583Y382573D01*
X320345Y382543D01*
X319984Y382400D01*
X319611Y382292D01*
X319404Y382171D01*
X319181Y382082D01*
X318867Y381854D01*
X318531Y381657D01*
X318233Y381394D01*
X318167Y381347D01*
X318137Y381310D01*
X318053Y381236D01*
X307740Y370923D01*
X307502Y370616D01*
X307236Y370333D01*
X307120Y370123D01*
X306973Y369934D01*
X306818Y369577D01*
X306631Y369237D01*
X306570Y369005D01*
X306475Y368785D01*
X306414Y368401D01*
X306317Y368024D01*
X306291Y367628D01*
X306279Y367548D01*
X306283Y367500D01*
X306276Y367388D01*
X306276Y341793D01*
X306291Y341678D01*
X306281Y341563D01*
X306369Y341059D01*
X306433Y340550D01*
X306475Y340443D01*
X306495Y340329D01*
X306706Y339861D01*
X306894Y339386D01*
X306961Y339293D01*
X307009Y339187D01*
X307329Y338786D01*
X307630Y338372D01*
X307719Y338299D01*
X307790Y338209D01*
X308199Y337900D01*
X308594Y337573D01*
X308698Y337524D01*
X308790Y337455D01*
X309363Y337174D01*
X310004Y336908D01*
X317318Y329594D01*
X321276Y320038D01*
X321276Y309694D01*
X317318Y300138D01*
X310004Y292824D01*
X300447Y288865D01*
X290104Y288865D01*
X280547Y292824D01*
X273233Y300138D01*
X269275Y309694D01*
X269275Y320038D01*
X273233Y329594D01*
X280547Y336908D01*
X281188Y337174D01*
X281289Y337231D01*
X281398Y337266D01*
X281832Y337541D01*
X282276Y337794D01*
X282359Y337874D01*
X282457Y337936D01*
X282808Y338309D01*
X283176Y338665D01*
X283236Y338764D01*
X283315Y338848D01*
X283563Y339296D01*
X283831Y339733D01*
X283865Y339843D01*
X283921Y339944D01*
X284049Y340441D01*
X284200Y340930D01*
X284205Y341045D01*
X284234Y341156D01*
X284275Y341793D01*
X284275Y378572D01*
X310404Y404701D01*
X464019Y404701D01*
X464133Y404716D01*
X464248Y404707D01*
X464752Y404794D01*
X465261Y404858D01*
X465368Y404901D01*
X465482Y404920D01*
X465949Y405130D01*
X466426Y405319D01*
X466519Y405387D01*
X466624Y405434D01*
X467023Y405753D01*
X467439Y406055D01*
X467513Y406144D01*
X467602Y406215D01*
X467911Y406624D01*
X468238Y407019D01*
X468287Y407123D01*
X468356Y407215D01*
X468637Y407788D01*
X470084Y411279D01*
X472340Y413536D01*
X472676Y413969D01*
X473024Y414389D01*
X473059Y414462D01*
X473108Y414525D01*
X473326Y415029D01*
X473559Y415522D01*
X473574Y415601D01*
X473606Y415674D01*
X473691Y416216D01*
X473794Y416752D01*
X473789Y416832D01*
X473802Y416911D01*
X473751Y417455D01*
X473717Y418002D01*
X473692Y418079D01*
X473685Y418158D01*
X473500Y418672D01*
X473331Y419194D01*
X473288Y419262D01*
X473261Y419337D01*
X472955Y419788D01*
X472662Y420252D01*
X472604Y420307D01*
X472559Y420373D01*
X472149Y420735D01*
X471750Y421111D01*
X471680Y421149D01*
X471620Y421202D01*
X471133Y421451D01*
X470654Y421716D01*
X470576Y421736D01*
X470505Y421772D01*
X469971Y421892D01*
X469441Y422030D01*
X469330Y422037D01*
X469283Y422047D01*
X469202Y422045D01*
X468805Y422070D01*
X232535Y422070D01*
X232071Y422012D01*
X231604Y421983D01*
X231452Y421933D01*
X231293Y421913D01*
X230858Y421741D01*
X230413Y421597D01*
X230277Y421511D01*
X230128Y421453D01*
X229750Y421178D01*
X229354Y420928D01*
X229244Y420811D01*
X229115Y420717D01*
X228817Y420357D01*
X228496Y420016D01*
X228418Y419876D01*
X228316Y419752D01*
X228117Y419329D01*
X227890Y418919D01*
X227850Y418764D01*
X227782Y418620D01*
X227694Y418161D01*
X227577Y417707D01*
X227561Y417469D01*
X227546Y417390D01*
X227551Y417309D01*
X227536Y417071D01*
X227536Y339754D01*
X227585Y339368D01*
X227596Y338980D01*
X227663Y338749D01*
X227693Y338511D01*
X227836Y338150D01*
X227944Y337777D01*
X228065Y337570D01*
X228154Y337347D01*
X228382Y337032D01*
X228579Y336697D01*
X228842Y336399D01*
X228889Y336333D01*
X228927Y336303D01*
X229000Y336219D01*
X235531Y329689D01*
X239489Y320132D01*
X239489Y309789D01*
X235531Y300233D01*
X228216Y292918D01*
X218660Y288960D01*
X208316Y288960D01*
X198760Y292918D01*
X191446Y300233D01*
X187487Y309789D01*
X187487Y320132D01*
X191446Y329689D01*
X198760Y337003D01*
X202448Y338531D01*
X202548Y338588D01*
X202658Y338623D01*
X203092Y338897D01*
X203536Y339151D01*
X203619Y339231D01*
X203717Y339293D01*
X204068Y339666D01*
X204436Y340022D01*
X204496Y340120D01*
X204575Y340204D01*
X204823Y340653D01*
X205091Y341090D01*
X205125Y341200D01*
X205180Y341301D01*
X205309Y341797D01*
X205460Y342287D01*
X205465Y342401D01*
X205494Y342513D01*
X205535Y343149D01*
X205535Y437627D01*
X211979Y444071D01*
X536053Y444071D01*
X543960Y436164D01*
X543961Y436163D01*
X697400Y282724D01*
X697491Y282653D01*
X697566Y282566D01*
X697984Y282271D01*
X698389Y281956D01*
X698495Y281911D01*
X698589Y281844D01*
X699069Y281662D01*
X699539Y281459D01*
X699652Y281441D01*
X699760Y281400D01*
X700270Y281343D01*
X700775Y281262D01*
X700890Y281273D01*
X701005Y281260D01*
X701512Y281332D01*
X702022Y281380D01*
X702131Y281419D01*
X702245Y281435D01*
X702848Y281640D01*
X703490Y281906D01*
X713833Y281906D01*
X723389Y277948D01*
X730704Y270633D01*
X734662Y261077D01*
X734662Y250734D01*
X730704Y241177D01*
X723389Y233863D01*
X713833Y229905D01*
X703490Y229905D01*
G37*
%LPD*%
%LPC*%
G36*
X823663Y1194472D02*
X823663Y1194472D01*
X814107Y1198430D01*
X806792Y1205744D01*
X802834Y1215301D01*
X802834Y1225644D01*
X803100Y1226286D01*
X803130Y1226397D01*
X803182Y1226499D01*
X803295Y1226998D01*
X803430Y1227493D01*
X803432Y1227609D01*
X803457Y1227721D01*
X803442Y1228233D01*
X803450Y1228746D01*
X803423Y1228858D01*
X803420Y1228973D01*
X803278Y1229466D01*
X803158Y1229964D01*
X803105Y1230065D01*
X803073Y1230176D01*
X802812Y1230618D01*
X802573Y1231071D01*
X802496Y1231156D01*
X802437Y1231255D01*
X802016Y1231734D01*
X747002Y1286748D01*
X746695Y1286986D01*
X746412Y1287252D01*
X746202Y1287368D01*
X746013Y1287515D01*
X745656Y1287670D01*
X745316Y1287858D01*
X745083Y1287918D01*
X744863Y1288013D01*
X744480Y1288074D01*
X744103Y1288171D01*
X743706Y1288197D01*
X743626Y1288209D01*
X743578Y1288205D01*
X743467Y1288212D01*
X428514Y1288212D01*
X363015Y1353711D01*
X363015Y1587247D01*
X363001Y1587361D01*
X363010Y1587476D01*
X362922Y1587981D01*
X362858Y1588489D01*
X362816Y1588596D01*
X362796Y1588710D01*
X362585Y1589179D01*
X362397Y1589654D01*
X362330Y1589746D01*
X362282Y1589852D01*
X361962Y1590253D01*
X361662Y1590667D01*
X361573Y1590741D01*
X361501Y1590831D01*
X361092Y1591139D01*
X360697Y1591466D01*
X360593Y1591515D01*
X360501Y1591584D01*
X359929Y1591865D01*
X359288Y1592131D01*
X351973Y1599445D01*
X348015Y1609001D01*
X348015Y1619345D01*
X351973Y1628901D01*
X359288Y1636216D01*
X368844Y1640174D01*
X379188Y1640174D01*
X388744Y1636216D01*
X396058Y1628901D01*
X400016Y1619345D01*
X400016Y1609001D01*
X396058Y1599445D01*
X388744Y1592131D01*
X388103Y1591865D01*
X388002Y1591808D01*
X387893Y1591773D01*
X387459Y1591498D01*
X387015Y1591245D01*
X386932Y1591165D01*
X386835Y1591103D01*
X386483Y1590730D01*
X386115Y1590374D01*
X386055Y1590275D01*
X385976Y1590192D01*
X385728Y1589743D01*
X385460Y1589306D01*
X385426Y1589196D01*
X385371Y1589095D01*
X385242Y1588599D01*
X385091Y1588109D01*
X385086Y1587995D01*
X385057Y1587883D01*
X385016Y1587247D01*
X385016Y1364895D01*
X385065Y1364509D01*
X385077Y1364121D01*
X385143Y1363890D01*
X385173Y1363653D01*
X385316Y1363291D01*
X385424Y1362918D01*
X385546Y1362711D01*
X385634Y1362488D01*
X385862Y1362174D01*
X386060Y1361839D01*
X386322Y1361540D01*
X386370Y1361475D01*
X386407Y1361444D01*
X386481Y1361360D01*
X436163Y1311677D01*
X436470Y1311439D01*
X436753Y1311173D01*
X436963Y1311057D01*
X437153Y1310910D01*
X437509Y1310755D01*
X437850Y1310568D01*
X438082Y1310508D01*
X438302Y1310412D01*
X438685Y1310351D01*
X439062Y1310254D01*
X439459Y1310228D01*
X439539Y1310216D01*
X439587Y1310220D01*
X439698Y1310213D01*
X754651Y1310213D01*
X762559Y1302305D01*
X817573Y1247291D01*
X817665Y1247220D01*
X817739Y1247133D01*
X818157Y1246838D01*
X818563Y1246523D01*
X818668Y1246478D01*
X818763Y1246411D01*
X819242Y1246229D01*
X819712Y1246026D01*
X819826Y1246008D01*
X819933Y1245967D01*
X820443Y1245910D01*
X820949Y1245829D01*
X821063Y1245840D01*
X821178Y1245827D01*
X821686Y1245899D01*
X822195Y1245946D01*
X822304Y1245985D01*
X822418Y1246001D01*
X823021Y1246207D01*
X823663Y1246473D01*
X834006Y1246473D01*
X843563Y1242515D01*
X850877Y1235200D01*
X854835Y1225644D01*
X854835Y1215301D01*
X850877Y1205744D01*
X843563Y1198430D01*
X834006Y1194472D01*
X823663Y1194472D01*
G37*
%LPD*%
%LPC*%
G36*
X900340Y1096047D02*
X900340Y1096047D01*
X890784Y1100005D01*
X883469Y1107319D01*
X879511Y1116875D01*
X879511Y1127219D01*
X883469Y1136775D01*
X890784Y1144089D01*
X891425Y1144355D01*
X891525Y1144412D01*
X891635Y1144448D01*
X892068Y1144722D01*
X892513Y1144975D01*
X892595Y1145055D01*
X892693Y1145117D01*
X893044Y1145490D01*
X893412Y1145847D01*
X893473Y1145945D01*
X893552Y1146029D01*
X893799Y1146477D01*
X894067Y1146914D01*
X894101Y1147024D01*
X894157Y1147125D01*
X894285Y1147622D01*
X894436Y1148111D01*
X894442Y1148226D01*
X894470Y1148338D01*
X894511Y1148974D01*
X894511Y1371325D01*
X894462Y1371711D01*
X894451Y1372099D01*
X894384Y1372330D01*
X894354Y1372568D01*
X894211Y1372929D01*
X894103Y1373303D01*
X893982Y1373509D01*
X893893Y1373732D01*
X893665Y1374047D01*
X893468Y1374382D01*
X893205Y1374680D01*
X893158Y1374746D01*
X893121Y1374777D01*
X893047Y1374860D01*
X857718Y1410189D01*
X857627Y1410260D01*
X857552Y1410347D01*
X857134Y1410642D01*
X856729Y1410957D01*
X856623Y1411003D01*
X856529Y1411069D01*
X856049Y1411251D01*
X855579Y1411454D01*
X855466Y1411473D01*
X855358Y1411513D01*
X854848Y1411570D01*
X854343Y1411651D01*
X854228Y1411640D01*
X854113Y1411653D01*
X853606Y1411582D01*
X853096Y1411534D01*
X852987Y1411495D01*
X852873Y1411479D01*
X852270Y1411273D01*
X851628Y1411007D01*
X841285Y1411007D01*
X831729Y1414965D01*
X824414Y1422280D01*
X824149Y1422921D01*
X824092Y1423021D01*
X824056Y1423131D01*
X823782Y1423564D01*
X823528Y1424009D01*
X823449Y1424091D01*
X823387Y1424189D01*
X823013Y1424540D01*
X822657Y1424908D01*
X822559Y1424969D01*
X822475Y1425048D01*
X822027Y1425295D01*
X821590Y1425563D01*
X821480Y1425597D01*
X821379Y1425653D01*
X820882Y1425781D01*
X820393Y1425932D01*
X820278Y1425938D01*
X820166Y1425967D01*
X819530Y1426007D01*
X617478Y1426007D01*
X617363Y1425993D01*
X617249Y1426002D01*
X616744Y1425914D01*
X616235Y1425850D01*
X616128Y1425808D01*
X616015Y1425788D01*
X615546Y1425578D01*
X615071Y1425390D01*
X614978Y1425322D01*
X614872Y1425275D01*
X614471Y1424954D01*
X614057Y1424654D01*
X613984Y1424565D01*
X613894Y1424493D01*
X613586Y1424084D01*
X613258Y1423689D01*
X613209Y1423585D01*
X613140Y1423493D01*
X612859Y1422921D01*
X612593Y1422280D01*
X605279Y1414965D01*
X595723Y1411007D01*
X585379Y1411007D01*
X575823Y1414965D01*
X568509Y1422280D01*
X564550Y1431836D01*
X564550Y1442180D01*
X568509Y1451736D01*
X575823Y1459050D01*
X585379Y1463008D01*
X595723Y1463008D01*
X605279Y1459050D01*
X612593Y1451736D01*
X612859Y1451095D01*
X612916Y1450995D01*
X612952Y1450885D01*
X613226Y1450451D01*
X613479Y1450007D01*
X613559Y1449924D01*
X613621Y1449827D01*
X613994Y1449475D01*
X614351Y1449107D01*
X614449Y1449047D01*
X614533Y1448968D01*
X614981Y1448721D01*
X615418Y1448453D01*
X615528Y1448419D01*
X615629Y1448363D01*
X616126Y1448234D01*
X616615Y1448084D01*
X616730Y1448078D01*
X616842Y1448049D01*
X617478Y1448008D01*
X819530Y1448008D01*
X819644Y1448023D01*
X819759Y1448014D01*
X820264Y1448101D01*
X820773Y1448165D01*
X820879Y1448208D01*
X820993Y1448227D01*
X821462Y1448438D01*
X821937Y1448626D01*
X822030Y1448694D01*
X822135Y1448741D01*
X822536Y1449061D01*
X822951Y1449362D01*
X823024Y1449451D01*
X823114Y1449523D01*
X823422Y1449931D01*
X823749Y1450326D01*
X823798Y1450430D01*
X823868Y1450523D01*
X824149Y1451095D01*
X824414Y1451736D01*
X831729Y1459050D01*
X841285Y1463008D01*
X851628Y1463008D01*
X861185Y1459050D01*
X868499Y1451736D01*
X872457Y1442180D01*
X872457Y1431836D01*
X872192Y1431195D01*
X872161Y1431083D01*
X872109Y1430981D01*
X871997Y1430482D01*
X871861Y1429987D01*
X871859Y1429871D01*
X871834Y1429759D01*
X871849Y1429247D01*
X871841Y1428734D01*
X871868Y1428623D01*
X871871Y1428507D01*
X872014Y1428014D01*
X872133Y1427517D01*
X872187Y1427415D01*
X872219Y1427304D01*
X872479Y1426862D01*
X872718Y1426410D01*
X872796Y1426324D01*
X872854Y1426225D01*
X873275Y1425746D01*
X916512Y1382509D01*
X916512Y1148974D01*
X916527Y1148859D01*
X916518Y1148745D01*
X916605Y1148240D01*
X916669Y1147731D01*
X916712Y1147624D01*
X916731Y1147511D01*
X916942Y1147042D01*
X917130Y1146567D01*
X917197Y1146474D01*
X917245Y1146368D01*
X917565Y1145967D01*
X917866Y1145553D01*
X917955Y1145480D01*
X918026Y1145390D01*
X918435Y1145082D01*
X918830Y1144755D01*
X918934Y1144705D01*
X919027Y1144636D01*
X919599Y1144355D01*
X920240Y1144089D01*
X927554Y1136775D01*
X931512Y1127219D01*
X931512Y1116875D01*
X927554Y1107319D01*
X920240Y1100005D01*
X910684Y1096047D01*
X900340Y1096047D01*
G37*
%LPD*%
%LPC*%
G36*
X1726977Y1855700D02*
X1726977Y1855700D01*
X1713010Y1861485D01*
X1702320Y1872175D01*
X1696535Y1886142D01*
X1696535Y1901259D01*
X1702320Y1915226D01*
X1713010Y1925916D01*
X1726977Y1931701D01*
X1806094Y1931701D01*
X1820061Y1925916D01*
X1830751Y1915226D01*
X1836536Y1901259D01*
X1836536Y1886142D01*
X1830751Y1872175D01*
X1820061Y1861485D01*
X1806094Y1855700D01*
X1726977Y1855700D01*
G37*
%LPD*%
%LPC*%
G36*
X1726977Y1055700D02*
X1726977Y1055700D01*
X1713010Y1061485D01*
X1702320Y1072175D01*
X1696535Y1086142D01*
X1696535Y1101259D01*
X1702320Y1115226D01*
X1713010Y1125916D01*
X1726977Y1131701D01*
X1806094Y1131701D01*
X1820061Y1125916D01*
X1830751Y1115226D01*
X1836536Y1101259D01*
X1836536Y1086142D01*
X1830751Y1072175D01*
X1820061Y1061485D01*
X1806094Y1055700D01*
X1726977Y1055700D01*
G37*
%LPD*%
%LPC*%
G36*
X1726977Y1155700D02*
X1726977Y1155700D01*
X1713010Y1161485D01*
X1702320Y1172175D01*
X1696535Y1186142D01*
X1696535Y1201259D01*
X1702320Y1215226D01*
X1713010Y1225916D01*
X1726977Y1231701D01*
X1806094Y1231701D01*
X1820061Y1225916D01*
X1830751Y1215226D01*
X1836536Y1201259D01*
X1836536Y1186142D01*
X1830751Y1172175D01*
X1820061Y1161485D01*
X1806094Y1155700D01*
X1726977Y1155700D01*
G37*
%LPD*%
%LPC*%
G36*
X1034173Y1700472D02*
X1034173Y1700472D01*
X1020207Y1706257D01*
X1009517Y1716947D01*
X1003732Y1730914D01*
X1003732Y1810031D01*
X1009517Y1823998D01*
X1020207Y1834688D01*
X1034173Y1840473D01*
X1049291Y1840473D01*
X1063258Y1834688D01*
X1073948Y1823998D01*
X1079733Y1810031D01*
X1079733Y1730914D01*
X1073948Y1716947D01*
X1063258Y1706257D01*
X1049291Y1700472D01*
X1034173Y1700472D01*
G37*
%LPD*%
%LPC*%
G36*
X734173Y1700472D02*
X734173Y1700472D01*
X720207Y1706257D01*
X709517Y1716947D01*
X703732Y1730914D01*
X703732Y1810031D01*
X709517Y1823998D01*
X720207Y1834688D01*
X734173Y1840473D01*
X749291Y1840473D01*
X763258Y1834688D01*
X773948Y1823998D01*
X779733Y1810031D01*
X779733Y1730914D01*
X773948Y1716947D01*
X763258Y1706257D01*
X749291Y1700472D01*
X734173Y1700472D01*
G37*
%LPD*%
%LPC*%
G36*
X1726977Y1755700D02*
X1726977Y1755700D01*
X1713010Y1761485D01*
X1702320Y1772175D01*
X1696535Y1786142D01*
X1696535Y1801259D01*
X1702320Y1815226D01*
X1713010Y1825916D01*
X1726977Y1831701D01*
X1806094Y1831701D01*
X1820061Y1825916D01*
X1830751Y1815226D01*
X1836536Y1801259D01*
X1836536Y1786142D01*
X1830751Y1772175D01*
X1820061Y1761485D01*
X1806094Y1755700D01*
X1726977Y1755700D01*
G37*
%LPD*%
%LPC*%
G36*
X1726977Y1255700D02*
X1726977Y1255700D01*
X1713010Y1261485D01*
X1702320Y1272175D01*
X1696535Y1286142D01*
X1696535Y1301259D01*
X1702320Y1315226D01*
X1713010Y1325916D01*
X1726977Y1331701D01*
X1806094Y1331701D01*
X1820061Y1325916D01*
X1830751Y1315226D01*
X1836536Y1301259D01*
X1836536Y1286142D01*
X1830751Y1272175D01*
X1820061Y1261485D01*
X1806094Y1255700D01*
X1726977Y1255700D01*
G37*
%LPD*%
%LPC*%
G36*
X1726977Y1655700D02*
X1726977Y1655700D01*
X1713010Y1661485D01*
X1702320Y1672175D01*
X1696535Y1686142D01*
X1696535Y1701259D01*
X1702320Y1715226D01*
X1713010Y1725916D01*
X1726977Y1731701D01*
X1806094Y1731701D01*
X1820061Y1725916D01*
X1830751Y1715226D01*
X1836536Y1701259D01*
X1836536Y1686142D01*
X1830751Y1672175D01*
X1820061Y1661485D01*
X1806094Y1655700D01*
X1726977Y1655700D01*
G37*
%LPD*%
%LPC*%
G36*
X1726977Y1555700D02*
X1726977Y1555700D01*
X1713010Y1561485D01*
X1702320Y1572175D01*
X1696535Y1586142D01*
X1696535Y1601259D01*
X1702320Y1615226D01*
X1713010Y1625916D01*
X1726977Y1631701D01*
X1806094Y1631701D01*
X1820061Y1625916D01*
X1830751Y1615226D01*
X1836536Y1601259D01*
X1836536Y1586142D01*
X1830751Y1572175D01*
X1820061Y1561485D01*
X1806094Y1555700D01*
X1726977Y1555700D01*
G37*
%LPD*%
%LPC*%
G36*
X1726977Y1455700D02*
X1726977Y1455700D01*
X1713010Y1461485D01*
X1702320Y1472175D01*
X1696535Y1486142D01*
X1696535Y1501259D01*
X1702320Y1515226D01*
X1713010Y1525916D01*
X1726977Y1531701D01*
X1806094Y1531701D01*
X1820061Y1525916D01*
X1830751Y1515226D01*
X1836536Y1501259D01*
X1836536Y1486142D01*
X1830751Y1472175D01*
X1820061Y1461485D01*
X1806094Y1455700D01*
X1726977Y1455700D01*
G37*
%LPD*%
%LPC*%
G36*
X1726977Y1355700D02*
X1726977Y1355700D01*
X1713010Y1361485D01*
X1702320Y1372175D01*
X1696535Y1386142D01*
X1696535Y1401259D01*
X1702320Y1415226D01*
X1713010Y1425916D01*
X1726977Y1431701D01*
X1806094Y1431701D01*
X1820061Y1425916D01*
X1830751Y1415226D01*
X1836536Y1401259D01*
X1836536Y1386142D01*
X1830751Y1372175D01*
X1820061Y1361485D01*
X1806094Y1355700D01*
X1726977Y1355700D01*
G37*
%LPD*%
%LPC*%
G36*
X1726977Y955700D02*
X1726977Y955700D01*
X1713010Y961485D01*
X1702320Y972175D01*
X1696535Y986142D01*
X1696535Y1001259D01*
X1702320Y1015226D01*
X1713010Y1025916D01*
X1726977Y1031701D01*
X1806094Y1031701D01*
X1820061Y1025916D01*
X1830751Y1015226D01*
X1836536Y1001259D01*
X1836536Y986142D01*
X1830751Y972175D01*
X1820061Y961485D01*
X1806094Y955700D01*
X1726977Y955700D01*
G37*
%LPD*%
%LPC*%
G36*
X1478670Y1138787D02*
X1478670Y1138787D01*
X1466173Y1143963D01*
X1456609Y1153528D01*
X1451432Y1166024D01*
X1451432Y1235550D01*
X1456609Y1248047D01*
X1466173Y1257612D01*
X1478670Y1262788D01*
X1492196Y1262788D01*
X1504693Y1257612D01*
X1514258Y1248047D01*
X1519434Y1235550D01*
X1519434Y1166024D01*
X1514258Y1153528D01*
X1504693Y1143963D01*
X1492196Y1138787D01*
X1478670Y1138787D01*
G37*
%LPD*%
%LPC*%
G36*
X1578670Y1138787D02*
X1578670Y1138787D01*
X1566173Y1143963D01*
X1556609Y1153528D01*
X1551432Y1166024D01*
X1551432Y1235550D01*
X1556609Y1248047D01*
X1566173Y1257612D01*
X1578670Y1262788D01*
X1592196Y1262788D01*
X1604693Y1257612D01*
X1614258Y1248047D01*
X1619434Y1235550D01*
X1619434Y1166024D01*
X1614258Y1153528D01*
X1604693Y1143963D01*
X1592196Y1138787D01*
X1578670Y1138787D01*
G37*
%LPD*%
%LPC*%
G36*
X1578670Y882881D02*
X1578670Y882881D01*
X1566173Y888057D01*
X1556609Y897622D01*
X1551432Y910119D01*
X1551432Y979645D01*
X1556609Y992141D01*
X1566173Y1001706D01*
X1578670Y1006883D01*
X1592196Y1006883D01*
X1604693Y1001706D01*
X1614258Y992141D01*
X1619434Y979645D01*
X1619434Y910119D01*
X1614258Y897622D01*
X1604693Y888057D01*
X1592196Y882881D01*
X1578670Y882881D01*
G37*
%LPD*%
%LPC*%
G36*
X1478670Y882881D02*
X1478670Y882881D01*
X1466173Y888057D01*
X1456609Y897622D01*
X1451432Y910119D01*
X1451432Y979645D01*
X1456609Y992141D01*
X1466173Y1001706D01*
X1478670Y1006883D01*
X1492196Y1006883D01*
X1504693Y1001706D01*
X1514258Y992141D01*
X1519434Y979645D01*
X1519434Y910119D01*
X1514258Y897622D01*
X1504693Y888057D01*
X1492196Y882881D01*
X1478670Y882881D01*
G37*
%LPD*%
%LPC*%
G36*
X1578670Y626976D02*
X1578670Y626976D01*
X1566173Y632152D01*
X1556609Y641717D01*
X1551432Y654213D01*
X1551432Y723739D01*
X1556609Y736236D01*
X1566173Y745801D01*
X1578670Y750977D01*
X1592196Y750977D01*
X1604693Y745801D01*
X1614258Y736236D01*
X1619434Y723739D01*
X1619434Y654213D01*
X1614258Y641717D01*
X1604693Y632152D01*
X1592196Y626976D01*
X1578670Y626976D01*
G37*
%LPD*%
%LPC*%
G36*
X1478670Y626976D02*
X1478670Y626976D01*
X1466173Y632152D01*
X1456609Y641717D01*
X1451432Y654213D01*
X1451432Y723739D01*
X1456609Y736236D01*
X1466173Y745801D01*
X1478670Y750977D01*
X1492196Y750977D01*
X1504693Y745801D01*
X1514258Y736236D01*
X1519434Y723739D01*
X1519434Y654213D01*
X1514258Y641717D01*
X1504693Y632152D01*
X1492196Y626976D01*
X1478670Y626976D01*
G37*
%LPD*%
%LPC*%
G36*
X664119Y1351952D02*
X664119Y1351952D01*
X654563Y1355910D01*
X647249Y1363225D01*
X643291Y1372781D01*
X643291Y1383125D01*
X647249Y1392681D01*
X654563Y1399995D01*
X664119Y1403953D01*
X674463Y1403953D01*
X684019Y1399995D01*
X691334Y1392681D01*
X691599Y1392039D01*
X691656Y1391939D01*
X691692Y1391830D01*
X691966Y1391397D01*
X692220Y1390952D01*
X692300Y1390869D01*
X692361Y1390772D01*
X692735Y1390420D01*
X693091Y1390052D01*
X693189Y1389992D01*
X693273Y1389913D01*
X693722Y1389665D01*
X694159Y1389397D01*
X694269Y1389363D01*
X694369Y1389308D01*
X694866Y1389179D01*
X695355Y1389028D01*
X695470Y1389023D01*
X695582Y1388994D01*
X696218Y1388953D01*
X760475Y1388953D01*
X760589Y1388968D01*
X760704Y1388959D01*
X761208Y1389046D01*
X761717Y1389110D01*
X761824Y1389153D01*
X761938Y1389172D01*
X762405Y1389382D01*
X762882Y1389571D01*
X762975Y1389639D01*
X763080Y1389686D01*
X763480Y1390005D01*
X763895Y1390307D01*
X763969Y1390396D01*
X764059Y1390467D01*
X764367Y1390876D01*
X764694Y1391271D01*
X764743Y1391375D01*
X764812Y1391467D01*
X765094Y1392039D01*
X765359Y1392681D01*
X772673Y1399995D01*
X782230Y1403953D01*
X792573Y1403953D01*
X802130Y1399995D01*
X809444Y1392681D01*
X813402Y1383125D01*
X813402Y1372781D01*
X809444Y1363225D01*
X802130Y1355910D01*
X792573Y1351952D01*
X782230Y1351952D01*
X772673Y1355910D01*
X765359Y1363225D01*
X765094Y1363866D01*
X765036Y1363966D01*
X765001Y1364076D01*
X764727Y1364509D01*
X764473Y1364954D01*
X764393Y1365036D01*
X764331Y1365134D01*
X763958Y1365486D01*
X763602Y1365853D01*
X763504Y1365914D01*
X763420Y1365992D01*
X762971Y1366240D01*
X762534Y1366508D01*
X762424Y1366542D01*
X762323Y1366598D01*
X761827Y1366726D01*
X761337Y1366877D01*
X761222Y1366883D01*
X761111Y1366911D01*
X760475Y1366952D01*
X696218Y1366952D01*
X696104Y1366938D01*
X695989Y1366947D01*
X695485Y1366859D01*
X694976Y1366795D01*
X694868Y1366753D01*
X694755Y1366733D01*
X694288Y1366523D01*
X693811Y1366334D01*
X693718Y1366267D01*
X693613Y1366220D01*
X693213Y1365900D01*
X692797Y1365599D01*
X692724Y1365510D01*
X692634Y1365438D01*
X692326Y1365029D01*
X691999Y1364634D01*
X691950Y1364530D01*
X691880Y1364438D01*
X691599Y1363866D01*
X691334Y1363225D01*
X684019Y1355910D01*
X674463Y1351952D01*
X664119Y1351952D01*
G37*
%LPD*%
%LPC*%
G36*
X1995693Y738889D02*
X1995693Y738889D01*
X1981914Y744596D01*
X1971368Y755142D01*
X1965661Y768921D01*
X1965661Y783835D01*
X1971368Y797613D01*
X1981914Y808160D01*
X1995693Y813867D01*
X2010607Y813867D01*
X2024385Y808160D01*
X2034931Y797613D01*
X2040638Y783835D01*
X2040638Y768921D01*
X2034931Y755142D01*
X2024385Y744596D01*
X2010607Y738889D01*
X1995693Y738889D01*
G37*
%LPD*%
%LPC*%
G36*
X1739787Y738889D02*
X1739787Y738889D01*
X1726008Y744596D01*
X1715462Y755142D01*
X1709755Y768921D01*
X1709755Y783835D01*
X1715462Y797613D01*
X1726008Y808160D01*
X1739787Y813867D01*
X1754701Y813867D01*
X1768480Y808160D01*
X1779026Y797613D01*
X1784733Y783835D01*
X1784733Y768921D01*
X1779026Y755142D01*
X1768480Y744596D01*
X1754701Y738889D01*
X1739787Y738889D01*
G37*
%LPD*%
%LPC*%
G36*
X1995693Y561724D02*
X1995693Y561724D01*
X1981914Y567431D01*
X1971368Y577977D01*
X1965661Y591756D01*
X1965661Y606670D01*
X1971368Y620448D01*
X1981914Y630994D01*
X1995693Y636701D01*
X2010607Y636701D01*
X2024385Y630994D01*
X2034931Y620448D01*
X2040638Y606670D01*
X2040638Y591756D01*
X2034931Y577977D01*
X2024385Y567431D01*
X2010607Y561724D01*
X1995693Y561724D01*
G37*
%LPD*%
%LPC*%
G36*
X2003173Y313692D02*
X2003173Y313692D01*
X1989394Y319399D01*
X1978848Y329945D01*
X1973141Y343724D01*
X1973141Y358638D01*
X1978848Y372417D01*
X1989394Y382963D01*
X2003173Y388670D01*
X2018087Y388670D01*
X2031865Y382963D01*
X2042412Y372417D01*
X2048119Y358638D01*
X2048119Y343724D01*
X2042412Y329945D01*
X2031865Y319399D01*
X2018087Y313692D01*
X2003173Y313692D01*
G37*
%LPD*%
%LPC*%
G36*
X1747267Y313692D02*
X1747267Y313692D01*
X1733489Y319399D01*
X1722943Y329945D01*
X1717235Y343724D01*
X1717235Y358638D01*
X1722943Y372417D01*
X1733489Y382963D01*
X1747267Y388670D01*
X1762181Y388670D01*
X1775960Y382963D01*
X1786506Y372417D01*
X1792213Y358638D01*
X1792213Y343724D01*
X1786506Y329945D01*
X1775960Y319399D01*
X1762181Y313692D01*
X1747267Y313692D01*
G37*
%LPD*%
%LPC*%
G36*
X2003173Y136527D02*
X2003173Y136527D01*
X1989394Y142234D01*
X1978848Y152780D01*
X1973141Y166559D01*
X1973141Y181473D01*
X1978848Y195251D01*
X1989394Y205797D01*
X2003173Y211505D01*
X2018087Y211505D01*
X2031865Y205797D01*
X2042412Y195251D01*
X2048119Y181473D01*
X2048119Y166559D01*
X2042412Y152780D01*
X2031865Y142234D01*
X2018087Y136527D01*
X2003173Y136527D01*
G37*
%LPD*%
%LPC*%
G36*
X851731Y1780471D02*
X851731Y1780471D01*
X851731Y1843386D01*
X857855Y1841396D01*
X863745Y1838395D01*
X869094Y1834509D01*
X873769Y1829834D01*
X877655Y1824485D01*
X880656Y1818595D01*
X882699Y1812308D01*
X883733Y1805778D01*
X883733Y1780471D01*
X851731Y1780471D01*
G37*
%LPD*%
%LPC*%
G36*
X851731Y1760473D02*
X851731Y1760473D01*
X883733Y1760473D01*
X883733Y1735167D01*
X882699Y1728637D01*
X881938Y1726297D01*
X881938Y1726296D01*
X881938Y1726295D01*
X880656Y1722350D01*
X877655Y1716460D01*
X873769Y1711111D01*
X869094Y1706436D01*
X863745Y1702550D01*
X857855Y1699549D01*
X851731Y1697559D01*
X851731Y1760473D01*
G37*
%LPD*%
%LPC*%
G36*
X799732Y1780471D02*
X799732Y1780471D01*
X799732Y1805778D01*
X800766Y1812308D01*
X802675Y1818184D01*
X802675Y1818185D01*
X802676Y1818186D01*
X802809Y1818595D01*
X805810Y1824485D01*
X809696Y1829834D01*
X814371Y1834509D01*
X819719Y1838395D01*
X825609Y1841396D01*
X831733Y1843386D01*
X831733Y1780471D01*
X799732Y1780471D01*
G37*
%LPD*%
%LPC*%
G36*
X825609Y1699549D02*
X825609Y1699549D01*
X819719Y1702550D01*
X814371Y1706436D01*
X809696Y1711111D01*
X805810Y1716460D01*
X802809Y1722350D01*
X800766Y1728637D01*
X799732Y1735167D01*
X799732Y1760473D01*
X831733Y1760473D01*
X831733Y1697559D01*
X825609Y1699549D01*
G37*
%LPD*%
%LPC*%
G36*
X841731Y1770471D02*
X841731Y1770471D01*
X841731Y1770474D01*
X841734Y1770474D01*
X841734Y1770471D01*
X841731Y1770471D01*
G37*
%LPD*%
D10*
X741732Y1738472D02*
X741732Y1802472D01*
X841732Y1802472D02*
X841732Y1738472D01*
X941732Y1738472D02*
X941732Y1802472D01*
X1041732Y1802472D02*
X1041732Y1738472D01*
X1734535Y993701D02*
X1798535Y993701D01*
X1798535Y1093701D02*
X1734535Y1093701D01*
X1734535Y1193701D02*
X1798535Y1193701D01*
X1798535Y1293701D02*
X1734535Y1293701D01*
X1734535Y1393701D02*
X1798535Y1393701D01*
X1798535Y1493701D02*
X1734535Y1493701D01*
X1734535Y1593701D02*
X1798535Y1593701D01*
X1798535Y1693701D02*
X1734535Y1693701D01*
X1734535Y1793701D02*
X1798535Y1793701D01*
X1798535Y1893701D02*
X1734535Y1893701D01*
D11*
X1754724Y351181D03*
X2010630Y351181D03*
X1754724Y174016D03*
X2010630Y174016D03*
X1747244Y776378D03*
X2003150Y776378D03*
X1747244Y599213D03*
X2003150Y599213D03*
D12*
X1585433Y1172787D02*
X1585433Y1228787D01*
X1485433Y1228787D02*
X1485433Y1172787D01*
X1585433Y972882D02*
X1585433Y916882D01*
X1485433Y916882D02*
X1485433Y972882D01*
X1585433Y716976D02*
X1585433Y660976D01*
X1485433Y660976D02*
X1485433Y716976D01*
D13*
X708661Y255906D03*
D14*
X531496Y433071D01*
X216535Y433071D01*
X216535Y314961D01*
X213488Y314961D01*
D13*
X213488Y314961D03*
D14*
X841732Y1668504D02*
X841732Y1770472D01*
X841732Y1668504D02*
X826772Y1653543D01*
D13*
X826772Y1653543D03*
X1200787Y118110D03*
X98425Y1870079D03*
X2007874Y944882D03*
X1437008Y393701D03*
X492126Y511811D03*
X393701Y1259843D03*
X216535Y1240157D03*
X413386Y1437008D03*
X1102362Y1653543D03*
X1100127Y1572568D03*
X511811Y866142D03*
X492126Y396551D03*
D14*
X489276Y393701D01*
X314961Y393701D01*
X295276Y374016D01*
D13*
X295276Y314866D03*
D14*
X295276Y374016D01*
D13*
X590551Y1358268D03*
D14*
X511811Y1437008D01*
X511811Y1496063D01*
X629921Y1614173D01*
X925197Y1614173D01*
X941732Y1630709D01*
X941732Y1770472D01*
D13*
X531496Y1358268D03*
D14*
X452756Y1437008D01*
X452756Y1594488D01*
D13*
X452756Y1594488D03*
X590551Y1437008D03*
D14*
X846457Y1437008D01*
D13*
X846457Y1437008D03*
X846457Y728346D03*
D14*
X866142Y708661D01*
X885827Y708661D01*
X905512Y728346D01*
X905512Y925197D01*
D13*
X905512Y925197D03*
X905512Y1122047D03*
D14*
X905512Y1377953D01*
X846457Y1437008D01*
D13*
X787402Y1377953D03*
X669291Y1377953D03*
D14*
X787402Y1377953D01*
D13*
X944882Y767717D03*
D14*
X1023622Y767717D01*
X1082677Y826772D01*
X1082677Y1496063D01*
X1080442Y1498298D01*
D13*
X1080442Y1498298D03*
X828835Y1220472D03*
D14*
X750094Y1299213D01*
X433071Y1299213D01*
X374016Y1358268D01*
X374016Y1614173D01*
D13*
X374016Y1614173D03*
X984252Y807087D03*
D14*
X984252Y1003937D01*
X964567Y1023622D01*
X59055Y1023622D01*
X59055Y1614173D01*
D13*
X59055Y1614173D03*
X610236Y767717D03*
D14*
X610236Y472441D01*
X1043307Y39370D02*
X1200787Y39370D01*
X1200787Y59055D01*
D13*
X1200787Y59055D03*
D14*
X1043307Y39370D02*
X610236Y472441D01*
D13*
X669291Y767717D03*
D14*
X669291Y472441D01*
X964567Y177165D02*
X1200787Y177165D01*
D13*
X1200787Y177165D03*
D14*
X964567Y177165D02*
X669291Y472441D01*
D13*
X728346Y767717D03*
D14*
X728346Y610236D01*
X787402Y551181D01*
X1673228Y511811D02*
X1673228Y177165D01*
X1676378Y174016D01*
X1754724Y174016D01*
X1633858Y551181D02*
X787402Y551181D01*
X1633858Y551181D02*
X1673228Y511811D01*
D13*
X787402Y767717D03*
D14*
X787402Y629921D01*
X818110Y599213D02*
X1747244Y599213D01*
X818110Y599213D02*
X787402Y629921D01*
M02*
